<svg id="Layer_1" data-name="Layer 1" xmlns="http://www.w3.org/2000/svg" viewBox="0 0 100 100"><defs><style>.cls-1{fill:#fff;}</style></defs><title>whatsapp</title><path class="cls-1" d="M25.3,68l-2.45,9,9-2.46C64,95.17,95.19,55.44,71.26,29.34,43.38,2.92,5,38,25.3,68Zm40-2.87-.47.33a10.27,10.27,0,0,1-6.65,1.74L56,66.9C43.14,64.82,19.64,41,36.13,32.59h0a12.68,12.68,0,0,1,1.51,0c3.61,1.36,7.75,10.19,2.67,13.61-.25,4.16,7.17,10,11.46,11.93h0c.39,0,1.84,1.36,3,.18a37.12,37.12,0,0,1,3-3.51h0a1.79,1.79,0,0,1,1.41-.48c3.22,1.09,6.2,2.71,8.11,3.47a1.26,1.26,0,0,1,.71,1C68,60.69,67.78,63.6,65.27,65.15Z"/><path class="cls-1" d="M95-.8H4.83A4.9,4.9,0,0,0-.07,4.11V94.3a4.9,4.9,0,0,0,4.9,4.9H95a4.9,4.9,0,0,0,4.91-4.9V4.11A4.91,4.91,0,0,0,95-.8ZM30.8,82.65,12.16,87.73l5.07-18.64c-21.3-40.19,28.38-74.91,59-45.42C107,56.48,68.25,103.5,30.8,82.65Z"/></svg>